<svg width="191" height="38" viewBox="0 0 191 38" fill="none" xmlns="http://www.w3.org/2000/svg">
<g clip-path="url(#clip0_50373_373)">
<path d="M6.07 20.72V18.46C12.7536 17.5423 19.4937 17.0979 26.24 17.13C26.24 17.73 26.24 18.34 26.18 18.95C28.0976 18.099 30.1128 17.4877 32.18 17.13C30.8625 13.722 28.4618 10.8412 25.3471 8.93087C22.2324 7.02052 18.5764 6.1864 14.9414 6.55683C11.3064 6.92727 7.89379 8.48172 5.22852 10.9811C2.56325 13.4804 0.792969 16.7863 0.190001 20.39L6.07 20.72Z" fill="#FDC305"/>
<path d="M27.24 24.23C26.08 25.51 25.85 25.43 25.85 27.68C25.85 28.59 25.85 32.58 25.85 36.86C28.1425 35.346 30.0245 33.2879 31.328 30.8694C32.6315 28.4509 33.3158 25.7474 33.32 23C33.3068 21.9591 33.1997 20.9216 33 19.9C30.9282 21.1295 28.9967 22.5814 27.24 24.23Z" fill="#FDC305"/>
<path d="M6.36 25.72C6.36 25.72 2.57 24.28 1.17 23.89C0.787067 23.7693 0.396097 23.6757 0 23.61C0.108395 26.496 0.965588 29.3041 2.48739 31.7586C4.00919 34.2131 6.14326 36.2296 8.68 37.61L6.36 25.72Z" fill="#FDC305"/>
<path d="M26.29 17.12C26.3307 11.5986 25.862 6.08528 24.89 0.65C24.89 0.65 24.75 -0.64 24 0.41C23.4109 1.65814 23.0067 2.98539 22.8 4.35C18.5418 4.07577 14.2675 4.18957 10.03 4.69C9.24 2 7.85 0.75 7.18 1C6.51 1.25 6.46 4.31 6.46 4.31L6.13 18.41C12.8113 17.506 19.548 17.0749 26.29 17.12V17.12Z" fill="#F06351"/>
<path d="M12.41 14C12.41 13.91 13.41 14.68 13.82 14.92C14.23 15.16 14.43 15.34 14.43 15.51C14.43 15.68 14.16 15.85 13.8 15.85C13.44 15.85 12.89 15.73 12.8 15.58H13.74H14.03C13.4207 15.1294 12.8757 14.5978 12.41 14V14Z" fill="black"/>
<path d="M19.89 14.11L18.8 15.44C18.8 15.5 18.63 15.79 18.98 15.74C19.3942 15.6783 19.8023 15.5812 20.2 15.45C20.31 15.45 20.27 15.26 20.09 15.28C19.91 15.3 19.4 15.33 19.09 15.39L19.93 14.13C19.93 14.13 20 14 19.89 14.11Z" fill="black"/>
<path d="M16.75 20.2C17.2135 19.9958 17.5967 19.6443 17.84 19.2C18.12 18.55 17.84 18.29 17.4 18.2C16.7979 18.0902 16.1765 18.2116 15.66 18.54C15.27 18.9 15.32 19.26 15.61 19.54C15.9613 19.8062 16.3442 20.0279 16.75 20.2V20.2Z" fill="black"/>
<path d="M16.35 21.45C16.2379 21.6785 16.0816 21.8825 15.89 22.05C15.6052 22.2791 15.2551 22.4122 14.89 22.43C14.3638 22.472 13.8406 22.3189 13.42 22C13.2222 21.8808 13.0436 21.7324 12.89 21.56C12.7895 21.4491 12.6669 21.3605 12.53 21.3C12.53 21.3 13.28 25.4 15.1 26.05C16.92 26.7 17.24 25.3 17.3 24.92C17.3601 23.7851 17.0742 22.6588 16.48 21.69C16.46 21.38 16.45 21.58 16.35 21.45Z" fill="#F06351"/>
<path d="M14.71 22.59C14.2453 22.5247 13.7989 22.3651 13.3982 22.1209C12.9975 21.8767 12.651 21.5531 12.38 21.17C12.3667 21.157 12.3561 21.1414 12.3489 21.1242C12.3417 21.1071 12.338 21.0886 12.338 21.07C12.338 21.0514 12.3417 21.0329 12.3489 21.0158C12.3561 20.9986 12.3667 20.983 12.38 20.97C12.393 20.9567 12.4086 20.9461 12.4258 20.9389C12.4429 20.9317 12.4614 20.928 12.48 20.928C12.4986 20.928 12.5171 20.9317 12.5342 20.9389C12.5514 20.9461 12.567 20.9567 12.58 20.97C13.0848 21.6642 13.843 22.1313 14.69 22.27V22.27C15.0217 22.245 15.3426 22.1413 15.6261 21.9674C15.9096 21.7934 16.1475 21.5544 16.32 21.27L16.46 21.08L16.56 21.29C16.56 21.29 16.93 22.05 17.56 22.09C18.19 22.13 18.61 21.68 19.17 20.81C19.183 20.7967 19.1986 20.7861 19.2158 20.7789C19.2329 20.7717 19.2514 20.768 19.27 20.768C19.2886 20.768 19.3071 20.7717 19.3242 20.7789C19.3414 20.7861 19.357 20.7967 19.37 20.81C19.4023 20.8306 19.4255 20.8629 19.4348 20.9C19.4441 20.9372 19.4388 20.9766 19.42 21.01C18.78 22.01 18.15 22.45 17.54 22.41C17.308 22.3763 17.0867 22.2904 16.8927 22.1587C16.6987 22.0271 16.5371 21.8531 16.42 21.65C16.2233 21.9245 15.9676 22.1514 15.6717 22.3141C15.3758 22.4767 15.0471 22.571 14.71 22.59V22.59Z" fill="black"/>
<path d="M26.24 18.92C24.4445 20.5437 22.7512 22.277 21.17 24.11C19.5986 25.9361 17.8238 27.5768 15.88 29C15.66 28.47 14.26 27.49 14.26 27.49C14.26 27.49 11.13 25.35 9.08 23.67C7.97414 22.7373 6.9287 21.7353 5.95 20.67L3.95 20.56C6.84018 24.7655 11.0702 27.8676 15.95 29.36C16.81 29.22 19.22 27.5 21.02 26.1C23.1389 24.2819 25.124 22.3134 26.96 20.21C27.4625 19.621 27.8493 18.9425 28.1 18.21C27 18.6 26.24 18.92 26.24 18.92Z" fill="#F06351"/>
</g>
<g clip-path="url(#clip1_50373_373)">
<path d="M91.2645 26.9492C90.3696 25.5585 89.9253 23.8911 90 22.2034V15.1695C89.8916 13.4636 90.3081 11.7667 91.1855 10.339C92.0548 9.23729 93.3983 8.72881 95.374 8.72881C97.3498 8.72881 98.6143 9.23729 99.4045 10.1695C100.263 11.3502 100.685 12.8286 100.59 14.322V16.0169H96.7175V14.0678C96.7488 13.4913 96.6681 12.9142 96.4804 12.3729C96.3802 12.1544 96.2212 11.9731 96.024 11.8523C95.8269 11.7314 95.6005 11.6766 95.374 11.6949C94.8208 11.6949 94.4257 11.8644 94.2676 12.2881C94.0888 12.8903 94.0086 13.5211 94.0305 14.1525V23.2203C93.9888 23.833 94.0978 24.4467 94.3466 25C94.5047 25.4237 94.8999 25.5932 95.4531 25.5932C96.0063 25.5932 96.3224 25.4237 96.4804 25C96.6601 24.4273 96.7405 23.8241 96.7175 23.2203V21.1864H100.59V22.8814C100.67 24.3991 100.251 25.8989 99.4045 27.1186C98.6143 28.1356 97.2707 28.6441 95.374 28.6441C93.4773 28.5593 92.0548 28.0508 91.2645 26.9492Z" fill="#111111"/>
<path d="M105.253 8.98305H109.757L113.077 28.3051H109.441L108.809 24.2373H106.201L105.569 28.3051H101.854L105.253 8.98305ZM108.493 21.6949L107.545 14.1525L106.596 21.6949H108.493Z" fill="#111111"/>
<path d="M115.843 12.2034H113.156V8.98305H122.56V12.1186H119.873V28.3051H115.843V12.2034Z" fill="#111111"/>
<path d="M129.752 8.98305H136.707V11.0169H132.202V17.3729H135.837V19.322H132.202V26.4407H136.707V28.3898H129.673V8.98305H129.752Z" fill="#111111"/>
<path d="M138.761 8.98305H140.5L145.637 21.7797V8.98305H147.692V28.3051H146.111L140.895 15.0847V28.3051H138.761V8.98305Z" fill="#111111"/>
<path d="M150.063 8.98305H157.017V11.0169H152.513V17.3729H156.148V19.322H152.513V26.4407H157.017V28.3898H150.063V8.98305Z" fill="#111111"/>
<path d="M159.072 8.98305H162.707C164.137 8.87712 165.559 9.29547 166.738 10.1695C167.607 10.9322 168.002 12.2881 168.002 14.0678C168.002 16.5254 167.291 18.0508 165.79 18.5593L168.318 28.2203H165.869L163.498 19.1525H161.522V28.2203H158.993V8.98305H159.072ZM162.549 17.2881C163.364 17.3601 164.176 17.1199 164.841 16.6102C165.315 16.1864 165.552 15.339 165.552 14.0678C165.574 13.4363 165.494 12.8055 165.315 12.2034C165.137 11.7713 164.832 11.414 164.446 11.1864C163.902 10.9205 163.304 10.804 162.707 10.8475H161.601V17.2034H162.549V17.2881Z" fill="#111111"/>
<path d="M171.164 26.8644C170.342 25.3827 169.956 23.6696 170.057 21.9492V15.5085C170.038 14.2804 170.17 13.0549 170.452 11.8644C170.717 10.9748 171.244 10.2014 171.954 9.66102C172.836 9.10091 173.854 8.83538 174.878 8.8983C176.538 8.8983 177.723 9.32203 178.434 10.2542C179.252 11.4852 179.644 12.984 179.541 14.4915V15.1695H177.17V14.5763C177.173 13.8665 177.12 13.1577 177.012 12.4576C176.945 12.0152 176.718 11.6191 176.379 11.3559C175.935 11.0433 175.408 10.8945 174.878 10.9322C174.311 10.8933 173.75 11.0737 173.297 11.4407C173.111 11.6087 172.959 11.8156 172.851 12.0487C172.742 12.2819 172.679 12.5364 172.665 12.7966C172.561 13.5542 172.508 14.3189 172.507 15.0847V22.2881C172.449 23.3856 172.61 24.4837 172.981 25.5085C173.297 26.1864 173.93 26.4407 174.878 26.4407C175.252 26.4907 175.632 26.4209 175.97 26.2399C176.307 26.059 176.587 25.775 176.775 25.4237C177.192 24.3521 177.381 23.1939 177.328 22.0339V20.678H175.036V18.7288H179.62V28.3051H178.039L177.802 26.1017C177.595 26.8401 177.163 27.4831 176.576 27.9284C175.989 28.3737 175.28 28.5958 174.562 28.5593C173.909 28.6005 173.256 28.4672 172.663 28.1714C172.07 27.8756 171.555 27.4265 171.164 26.8644V26.8644Z" fill="#111111"/>
<path d="M184.678 21.5254L180.805 9.06779H183.176L185.942 18.3898L188.629 9.06779H191L187.128 21.5254V28.3051H184.757V21.5254H184.678Z" fill="#111111"/>
</g>
<defs>
<clipPath id="clip0_50373_373">
<rect width="33.32" height="37.61" fill="white"/>
</clipPath>
<clipPath id="clip1_50373_373">
<rect width="101" height="19.8305" fill="white" transform="translate(90 8.72881)"/>
</clipPath>
</defs>
</svg>
